<mxfile host="app.diagrams.net" modified="2023-10-16T15:12:06.876Z" agent="Mozilla/5.0 (Windows NT 10.0; Win64; x64) AppleWebKit/537.36 (KHTML, like Gecko) Chrome/118.0.0.0 Safari/537.36" etag="op_B5KZ0iYFHJ5itLJtA" version="22.0.4" type="device">
  <diagram name="Page-1" id="tYbwNAo_b-sIVdlNEphK">
    <mxGraphModel dx="530" dy="275" grid="1" gridSize="10" guides="1" tooltips="1" connect="1" arrows="1" fold="1" page="1" pageScale="1" pageWidth="850" pageHeight="1100" math="0" shadow="0">
      <root>
        <mxCell id="0" />
        <mxCell id="1" parent="0" />
        <mxCell id="4qtm8_j8A-9qr2PiBOD8-1" value="" style="whiteSpace=wrap;html=1;aspect=fixed;" vertex="1" parent="1">
          <mxGeometry x="810" y="140" width="510" height="510" as="geometry" />
        </mxCell>
        <mxCell id="4qtm8_j8A-9qr2PiBOD8-2" value="Bobot-1 &lt;br&gt;SOFTWARE ARCHITECTURE&lt;br&gt;rev.1" style="text;html=1;strokeColor=none;fillColor=none;align=center;verticalAlign=middle;whiteSpace=wrap;rounded=0;" vertex="1" parent="1">
          <mxGeometry x="325" y="160" width="200" height="30" as="geometry" />
        </mxCell>
        <mxCell id="4qtm8_j8A-9qr2PiBOD8-5" value="&lt;font style=&quot;font-size: 10px;&quot;&gt;*&lt;u&gt;note&lt;/u&gt;: There are two start up sequences for Bobot-1, and ON_BOOT mode, which will automatically start the software upon power on, and DEV_MODE, which won&#39;t automatically start the software on power on. While they are identical, this chart describes the former&lt;/font&gt;" style="text;html=1;strokeColor=none;fillColor=none;align=center;verticalAlign=middle;whiteSpace=wrap;rounded=0;" vertex="1" parent="1">
          <mxGeometry x="213" y="210" width="425" height="30" as="geometry" />
        </mxCell>
        <mxCell id="4qtm8_j8A-9qr2PiBOD8-8" style="edgeStyle=orthogonalEdgeStyle;rounded=0;orthogonalLoop=1;jettySize=auto;html=1;" edge="1" parent="1" source="4qtm8_j8A-9qr2PiBOD8-6" target="4qtm8_j8A-9qr2PiBOD8-7">
          <mxGeometry relative="1" as="geometry" />
        </mxCell>
        <mxCell id="4qtm8_j8A-9qr2PiBOD8-12" style="edgeStyle=orthogonalEdgeStyle;rounded=0;orthogonalLoop=1;jettySize=auto;html=1;exitX=0.5;exitY=1;exitDx=0;exitDy=0;entryX=0.5;entryY=0;entryDx=0;entryDy=0;" edge="1" parent="1" source="4qtm8_j8A-9qr2PiBOD8-6" target="4qtm8_j8A-9qr2PiBOD8-11">
          <mxGeometry relative="1" as="geometry" />
        </mxCell>
        <mxCell id="4qtm8_j8A-9qr2PiBOD8-15" style="edgeStyle=orthogonalEdgeStyle;rounded=0;orthogonalLoop=1;jettySize=auto;html=1;exitX=0.5;exitY=1;exitDx=0;exitDy=0;entryX=0.5;entryY=0;entryDx=0;entryDy=0;" edge="1" parent="1" source="4qtm8_j8A-9qr2PiBOD8-6" target="4qtm8_j8A-9qr2PiBOD8-14">
          <mxGeometry relative="1" as="geometry">
            <Array as="points">
              <mxPoint x="250" y="360" />
              <mxPoint x="390" y="360" />
            </Array>
          </mxGeometry>
        </mxCell>
        <mxCell id="4qtm8_j8A-9qr2PiBOD8-6" value="ON BOOT-UP" style="rhombus;whiteSpace=wrap;html=1;fillColor=#fff2cc;strokeColor=#d6b656;" vertex="1" parent="1">
          <mxGeometry x="200" y="270" width="100" height="50" as="geometry" />
        </mxCell>
        <mxCell id="4qtm8_j8A-9qr2PiBOD8-7" value="" style="rounded=0;whiteSpace=wrap;html=1;fillColor=#dae8fc;strokeColor=#6c8ebf;" vertex="1" parent="1">
          <mxGeometry x="380.5" y="256.57" width="180" height="76.87" as="geometry" />
        </mxCell>
        <mxCell id="4qtm8_j8A-9qr2PiBOD8-9" value="&lt;font style=&quot;font-size: 8px;&quot;&gt;ros2 launch manager_node&lt;/font&gt;" style="text;html=1;strokeColor=none;fillColor=none;align=center;verticalAlign=middle;whiteSpace=wrap;rounded=0;" vertex="1" parent="1">
          <mxGeometry x="290.5" y="260" width="90" height="30" as="geometry" />
        </mxCell>
        <mxCell id="4qtm8_j8A-9qr2PiBOD8-11" value="&lt;i style=&quot;font-size: 8px;&quot;&gt;&lt;br&gt;&lt;/i&gt;" style="rounded=1;whiteSpace=wrap;html=1;fillColor=#f5f5f5;fontColor=#333333;strokeColor=#666666;horizontal=1;verticalAlign=top;" vertex="1" parent="1">
          <mxGeometry x="190" y="380" width="120" height="60" as="geometry" />
        </mxCell>
        <mxCell id="4qtm8_j8A-9qr2PiBOD8-13" value="&lt;font style=&quot;font-size: 8px;&quot;&gt;ros2 launch timer_node&lt;/font&gt;" style="text;html=1;strokeColor=none;fillColor=none;align=center;verticalAlign=middle;whiteSpace=wrap;rounded=0;" vertex="1" parent="1">
          <mxGeometry x="190" y="333.44" width="55" height="30" as="geometry" />
        </mxCell>
        <mxCell id="4qtm8_j8A-9qr2PiBOD8-14" value="Lifecycle_node&lt;br&gt;" style="rounded=1;whiteSpace=wrap;html=1;fillColor=#f5f5f5;fontColor=#333333;strokeColor=#666666;verticalAlign=top;fontStyle=2" vertex="1" parent="1">
          <mxGeometry x="330" y="380" width="120" height="60" as="geometry" />
        </mxCell>
        <mxCell id="4qtm8_j8A-9qr2PiBOD8-16" value="&lt;font style=&quot;font-size: 8px;&quot;&gt;ros2 launch alt_monitor_node&lt;/font&gt;" style="text;html=1;strokeColor=none;fillColor=none;align=center;verticalAlign=middle;whiteSpace=wrap;rounded=0;" vertex="1" parent="1">
          <mxGeometry x="270" y="330" width="90" height="30" as="geometry" />
        </mxCell>
        <mxCell id="4qtm8_j8A-9qr2PiBOD8-17" value="&lt;i&gt;&lt;font style=&quot;font-size: 10px;&quot;&gt;Lifecycle_node&lt;/font&gt;&lt;/i&gt;" style="text;html=1;strokeColor=none;fillColor=none;align=center;verticalAlign=middle;whiteSpace=wrap;rounded=0;" vertex="1" parent="1">
          <mxGeometry x="220" y="370" width="60" height="30" as="geometry" />
        </mxCell>
      </root>
    </mxGraphModel>
  </diagram>
</mxfile>
